<svg width="507" height="169" viewBox="0 0 507 169" fill="none" xmlns="http://www.w3.org/2000/svg">
<path d="M38.144 53.2L39.744 53.456C41.792 53.456 44.8213 52.56 48.832 50.768C52.8853 48.9333 56.5973 46.672 59.968 43.984C63.3387 41.296 65.024 38.928 65.024 36.88C65.024 35.5573 64.3627 34.64 63.04 34.128C61.76 33.616 60.352 33.36 58.816 33.36C53.824 33.36 48.448 34.7893 42.688 37.648C36.928 40.5067 31.9573 43.8773 27.776 47.76C22.144 53.008 19.328 58 19.328 62.736C19.328 64.784 19.84 66.576 20.864 68.112C21.888 69.648 23.2533 70.8427 24.96 71.696C28.16 73.2747 31.744 74.064 35.712 74.064C37.504 74.064 39.7013 73.872 42.304 73.488C46.8267 72.6773 50.688 71.6107 53.888 70.288C57.1307 68.9653 60.3733 66.9813 63.616 64.336C63.7867 64.2507 63.8933 64.208 63.936 64.208C64.1493 64.208 64.256 64.3147 64.256 64.528C64.256 64.6987 64.1707 64.912 64 65.168C60.8 68.624 56.3413 71.4613 50.624 73.68C44.9067 75.856 39.552 76.944 34.56 76.944C28.16 76.944 23.36 75.0667 20.16 71.312C18.4107 69.2213 17.536 66.704 17.536 63.76C17.536 58.0427 20.6293 52.3893 26.816 46.8C31.4667 42.6187 37.056 39.0133 43.584 35.984C50.112 32.9547 56.192 31.44 61.824 31.44C65.28 31.44 67.968 32.272 69.888 33.936C70.9973 34.96 71.552 36.2187 71.552 37.712C71.552 39.8027 70.4853 41.9147 68.352 44.048C66.2613 46.1387 63.7227 47.9307 60.736 49.424C57.792 50.9173 54.8267 52.176 51.84 53.2C48.896 54.1813 46.8267 54.736 45.632 54.864C44.48 54.9493 43.584 54.992 42.944 54.992C42.3467 54.992 41.728 54.9707 41.088 54.928C38.8693 54.7147 37.76 54.2453 37.76 53.52C37.76 53.3067 37.888 53.2 38.144 53.2ZM73.328 72.912C70.4693 74.3627 67.9733 75.088 65.84 75.088C64.048 75.088 62.832 74.4907 62.192 73.296C61.8507 72.6987 61.68 72.016 61.68 71.248C61.68 69.4987 62.0853 67.792 62.896 66.128C62.3413 66.6827 61.808 67.1307 61.296 67.472C60.8693 67.856 60.656 67.8133 60.656 67.344C60.656 67.0453 61.04 66.576 61.808 65.936C62.5333 65.296 63.664 64.2293 65.2 62.736C66.736 61.2 67.952 60.048 68.848 59.28C71.4507 57.104 74.2027 56.016 77.104 56.016C78.1707 56.016 79.2587 56.2933 80.368 56.848C81.9893 57.616 82.8 59.024 82.8 61.072C82.8 63.5467 81.5627 66.0853 79.088 68.688C78.1067 69.7973 76.7413 70.9067 74.992 72.016C78.4907 71.4613 82.2027 69.3493 86.128 65.68C86.3413 65.5093 86.5333 65.4453 86.704 65.488C86.8747 65.488 86.96 65.5733 86.96 65.744C86.96 65.9147 86.8747 66.0853 86.704 66.256C82.0107 70.6933 77.6373 72.912 73.584 72.912C73.4987 72.912 73.4133 72.912 73.328 72.912ZM79.536 66.192C80.6027 64.5707 81.136 63.2053 81.136 62.096C81.136 60.944 80.6453 60.0693 79.664 59.472C79.1093 59.0027 78.4693 58.768 77.744 58.768C75.1413 58.768 72.7307 59.792 70.512 61.84C68.336 63.888 66.8853 66.064 66.16 68.368C65.8613 69.1787 65.712 70.032 65.712 70.928C65.712 71.7813 66.032 72.4 66.672 72.784C67.3547 73.1253 68.1013 73.296 68.912 73.296C69.7227 73.296 70.896 72.8907 72.432 72.08C72.3467 72.08 72.2187 72.0373 72.048 71.952C71.536 71.696 71.28 71.3547 71.28 70.928C71.28 69.4347 72.112 67.92 73.776 66.384C74.9707 65.3173 76.1867 64.784 77.424 64.784C78.6613 64.784 79.3653 65.2533 79.536 66.192ZM109.427 64.144C108.958 64.6987 108.467 65.296 107.955 65.936C107.486 66.576 106.867 67.4507 106.099 68.56C105.374 69.6693 105.011 70.608 105.011 71.376C105.011 72.144 105.331 72.528 105.971 72.528C106.654 72.528 107.742 72.1227 109.235 71.312C112.222 69.6053 115.528 67.0453 119.155 63.632C119.582 63.2053 119.859 63.1413 119.987 63.44C119.987 63.4827 119.987 63.568 119.987 63.696C119.987 63.824 119.902 63.9733 119.731 64.144C112.392 71.056 107.059 74.512 103.731 74.512C102.75 74.512 101.918 74.192 101.235 73.552C100.595 72.8693 100.275 72.08 100.275 71.184C100.275 70.288 100.659 68.9227 101.427 67.088C99.507 69.4773 97.4377 71.3333 95.219 72.656C93.043 73.936 91.3363 74.576 90.099 74.576C88.8617 74.576 87.795 74.2133 86.899 73.488C86.0457 72.72 85.619 71.7813 85.619 70.672C85.619 67.5147 87.027 64.4213 89.843 61.392C91.9763 59.1307 94.6217 57.5307 97.779 56.592C99.187 56.1227 100.552 55.888 101.875 55.888C103.24 55.888 104.542 56.272 105.779 57.04C107.059 57.7653 107.87 58.64 108.211 59.664C109.491 59.664 110.408 60.1333 110.963 61.072C111.048 61.2 111.091 61.4133 111.091 61.712C111.091 62.0107 110.92 62.352 110.579 62.736C110.28 63.12 109.896 63.5893 109.427 64.144ZM104.755 57.808C103.859 57.808 102.792 58.0853 101.555 58.64C99.379 59.5787 97.3097 61.2 95.347 63.504C92.2323 67.1733 90.675 69.8613 90.675 71.568C90.675 72.464 91.0377 72.912 91.763 72.912C92.3603 72.912 93.3417 72.528 94.707 71.76C96.115 70.992 97.9497 69.4773 100.211 67.216C100.339 67.088 100.83 66.6187 101.683 65.808C102.536 64.9973 103.262 64.2933 103.859 63.696C105.864 61.6053 106.867 60.112 106.867 59.216C106.867 58.2773 106.163 57.808 104.755 57.808ZM135.374 58.832C135.374 58.0213 134.947 57.616 134.094 57.616C133.369 57.616 132.238 57.9573 130.702 58.64C129.209 59.28 127.523 60.688 125.646 62.864C123.385 65.552 122.254 67.9413 122.254 70.032C122.254 71.6107 122.851 72.6773 124.046 73.232C124.43 73.4027 124.878 73.488 125.39 73.488C127.139 73.488 129.187 72.7413 131.534 71.248C133.923 69.7547 136.995 67.28 140.75 63.824C141.347 63.2267 141.646 63.2267 141.646 63.824C141.646 64.08 141.518 64.3147 141.262 64.528C136.057 69.3067 132.217 72.272 129.742 73.424C127.31 74.5333 125.39 75.088 123.982 75.088C119.033 75.088 116.558 73.2747 116.558 69.648C116.558 66.0213 118.179 62.9067 121.422 60.304C124.707 57.6587 128.121 56.336 131.662 56.336C133.881 56.336 135.374 56.848 136.142 57.872C136.611 58.384 136.846 58.9387 136.846 59.536C136.846 60.0907 136.697 60.688 136.398 61.328C136.099 61.9253 135.609 62.224 134.926 62.224C134.286 62.224 134.201 61.8187 134.67 61.008C135.139 60.1547 135.374 59.4293 135.374 58.832ZM156.289 58.384C156.289 57.8293 155.884 57.552 155.073 57.552C153.622 57.552 151.852 58.576 149.761 60.624C149.249 61.136 148.31 62.2027 146.945 63.824C145.622 65.4453 144.321 67.3013 143.041 69.392L141.441 72.912L141.633 72.272C141.548 72.4427 141.462 72.6987 141.377 73.04C141.164 73.552 140.545 73.9787 139.521 74.32C139.308 74.4053 139.116 74.448 138.945 74.448C138.518 74.448 138.476 74.128 138.817 73.488C138.988 73.0613 139.585 71.5467 140.609 68.944C141.633 66.2987 142.465 64.1867 143.105 62.608C141.441 64.4427 139.884 65.936 138.433 67.088C138.006 67.4293 137.708 67.472 137.537 67.216C137.494 67.1733 137.473 67.088 137.473 66.96C137.473 66.832 137.665 66.5973 138.049 66.256C140.652 63.9947 142.7 61.904 144.193 59.984C145.302 57.3813 147.329 53.776 150.273 49.168C153.26 44.5173 156.31 40.6773 159.425 37.648C161.516 35.5573 163.777 34.1493 166.209 33.424C167.318 33.0827 168.342 32.912 169.281 32.912C170.262 32.912 171.158 33.1893 171.969 33.744C172.822 34.256 173.249 35.2373 173.249 36.688C173.249 38.608 172.609 40.5493 171.329 42.512C170.049 44.4747 167.788 46.672 164.545 49.104C161.302 51.4933 158.294 53.2853 155.521 54.48C155.009 54.6933 154.71 54.672 154.625 54.416C154.54 54.1173 154.753 53.8613 155.265 53.648C157.74 52.5387 160.513 50.7893 163.585 48.4C166.7 46.0107 168.769 43.984 169.793 42.32C170.86 40.6133 171.393 39.248 171.393 38.224C171.393 37.1573 170.945 36.624 170.049 36.624C169.025 36.624 167.404 37.4773 165.185 39.184C161.9 41.8293 158.444 45.52 154.817 50.256C151.233 54.992 148.14 59.7707 145.537 64.592C146.732 62.8853 147.82 61.4773 148.801 60.368C151.19 57.68 153.516 56.336 155.777 56.336C157.91 56.336 159.169 57.2747 159.553 59.152C159.596 59.408 159.617 59.7707 159.617 60.24C159.617 60.7093 159.446 61.4133 159.105 62.352C158.806 63.248 157.91 64.9333 156.417 67.408C154.966 69.84 154.241 71.312 154.241 71.824C154.241 72.336 154.412 72.592 154.753 72.592C155.222 72.592 155.926 72.2933 156.865 71.696C159.254 70.2027 162.369 67.6853 166.209 64.144C166.721 63.632 166.956 63.5467 166.913 63.888C166.913 64.2293 166.785 64.5493 166.529 64.848C163.372 68.0907 160.108 70.8 156.737 72.976C155.158 74 153.729 74.512 152.449 74.512C152.108 74.512 151.788 74.4693 151.489 74.384C149.825 74.0427 148.993 73.1253 148.993 71.632C148.993 70.096 149.59 68.3893 150.785 66.512C150.998 66.2133 151.788 65.2107 153.153 63.504C155.244 60.944 156.289 59.2373 156.289 58.384ZM177.305 54.48C176.835 54.096 176.643 53.5413 176.729 52.816C176.814 52.0907 177.198 51.3227 177.881 50.512C178.563 49.7013 179.481 49.296 180.633 49.296C180.974 49.296 181.337 49.4667 181.721 49.808C182.105 50.1067 182.254 50.64 182.169 51.408C182.083 52.1333 181.742 52.8373 181.145 53.52C180.547 54.16 179.865 54.5867 179.097 54.8C178.371 54.9707 177.774 54.864 177.305 54.48ZM176.473 57.872C174.723 59.664 173.251 61.9467 172.057 64.72C170.905 67.4507 170.329 69.3707 170.329 70.48C170.329 71.5893 170.755 72.144 171.609 72.144C172.505 72.144 173.955 71.504 175.961 70.224C178.009 68.944 180.334 67.1307 182.937 64.784C183.491 64.272 183.769 64.336 183.769 64.976C183.769 65.0613 183.726 65.1467 183.641 65.232C181.593 67.024 179.865 68.496 178.457 69.648C177.049 70.8 175.363 71.9093 173.401 72.976C171.481 74 169.902 74.512 168.665 74.512C167.129 74.512 165.977 74.1707 165.209 73.488C164.483 72.8053 164.12 72.0587 164.12 71.248C164.12 69.712 164.398 68.496 164.953 67.6C165.507 66.704 166.446 65.4667 167.769 63.888C167.299 64.272 166.553 64.912 165.529 65.808C164.547 66.704 163.864 67.3013 163.48 67.6C163.096 67.8987 162.904 67.8133 162.904 67.344C162.904 67.0453 163.246 66.6187 163.928 66.064C164.611 65.5093 166.083 64.1013 168.345 61.84C170.649 59.5787 172.206 58.2347 173.017 57.808C173.87 57.3813 174.553 57.168 175.065 57.168C175.619 57.168 176.025 57.2533 176.281 57.424C176.537 57.552 176.601 57.7013 176.473 57.872ZM198.902 59.664C199.499 58.9813 199.798 58.448 199.798 58.064C199.798 57.68 199.393 57.488 198.582 57.488C197.814 57.488 196.577 58.2347 194.87 59.728C193.291 61.0933 191.371 63.376 189.11 66.576C186.891 69.776 185.27 71.952 184.246 73.104C183.265 74.2133 182.39 74.768 181.622 74.768C181.537 74.768 181.451 74.768 181.366 74.768C180.257 74.768 179.169 74.32 178.102 73.424C178.358 73.04 178.977 72.208 179.958 70.928C182.134 68.2827 184.033 65.7227 185.654 63.248C183.819 65.0827 182.262 66.512 180.982 67.536C180.555 67.8773 180.321 67.8987 180.278 67.6C180.193 67.3013 180.278 67.0453 180.534 66.832C180.79 66.576 181.217 66.192 181.814 65.68C182.411 65.1253 182.795 64.7627 182.966 64.592C183.179 64.4213 183.542 64.1013 184.054 63.632C184.609 63.12 185.014 62.7147 185.27 62.416C186.465 61.008 187.339 59.8133 187.894 58.832C188.107 58.32 188.193 57.8293 188.15 57.36C188.15 56.848 188.043 56.528 187.83 56.4C187.659 56.2293 187.595 56.0373 187.638 55.824C187.638 55.4827 187.809 55.312 188.15 55.312C188.321 55.312 188.513 55.3547 188.726 55.44C190.049 56.0373 190.71 57.232 190.71 59.024C190.71 60.7733 190.326 62.6507 189.558 64.656C191.222 62.48 192.481 60.9227 193.334 59.984C195.553 57.5093 197.729 56.272 199.862 56.272C201.953 56.272 203.19 57.168 203.574 58.96C203.617 59.216 203.638 59.6213 203.638 60.176C203.638 60.688 203.425 61.392 202.998 62.288C202.614 63.184 201.675 64.656 200.182 66.704C198.689 68.752 197.814 70.0533 197.558 70.608C197.345 71.12 197.281 71.504 197.366 71.76C197.451 72.016 197.643 72.1653 197.942 72.208C198.454 72.2933 199.329 71.952 200.566 71.184C202.315 69.9467 204.577 68.048 207.35 65.488C207.819 65.0187 208.054 65.0613 208.054 65.616C208.054 65.8293 207.947 66.0427 207.734 66.256C203.595 70.096 200.523 72.4853 198.518 73.424C196.171 74.6187 194.337 74.8107 193.014 74C192.203 73.488 191.798 72.784 191.798 71.888C191.798 70.9493 191.969 70.0107 192.31 69.072C193.078 66.896 195.275 63.76 198.902 59.664ZM201.049 91.536C197.337 91.536 194.265 90.7253 191.833 89.104C189.359 87.4827 188.122 85.1787 188.122 82.192C188.122 82.0213 188.185 81.936 188.313 81.936C188.612 81.936 188.804 82.1067 188.889 82.448C189.273 84.624 190.319 86.5013 192.025 88.08C192.793 88.8053 193.86 89.4027 195.225 89.872C196.548 90.3413 197.657 90.576 198.553 90.576C199.449 90.576 200.025 90.576 200.281 90.576C205.017 90.32 209.156 87.9307 212.698 83.408C214.362 81.2747 215.834 79.1413 217.114 77.008C218.394 74.9173 219.78 72.5707 221.274 69.968C222.767 67.3653 224.026 65.3813 225.05 64.016C223.727 65.5093 222.063 67.216 220.058 69.136C218.052 71.056 216.324 72.4427 214.874 73.296C213.423 74.1493 212.079 74.576 210.842 74.576C209.604 74.576 208.538 74.2133 207.642 73.488C206.788 72.72 206.361 71.7813 206.361 70.672C206.361 67.5147 207.77 64.4213 210.586 61.392C212.719 59.1307 215.364 57.5307 218.522 56.592C219.93 56.1227 221.295 55.888 222.618 55.888C223.983 55.888 225.284 56.272 226.522 57.04C227.802 57.7653 228.612 58.64 228.954 59.664C229.636 59.664 230.383 59.9627 231.194 60.56C232.004 61.1147 232.41 61.52 232.41 61.776C232.41 62.032 232.239 62.2453 231.898 62.416C230.532 63.0987 228.378 66.0853 225.434 71.376C222.575 76.4533 219.226 80.9973 215.385 85.008C213.466 87.0133 211.226 88.592 208.666 89.744C206.148 90.9387 203.609 91.536 201.049 91.536ZM210.97 71.44C210.97 72.4213 211.482 72.912 212.506 72.912C213.316 72.912 214.319 72.464 215.514 71.568C218.415 69.648 221.444 66.8533 224.602 63.184C226.052 61.52 226.778 60.2187 226.778 59.28C226.778 58.9387 226.65 58.64 226.394 58.384C226.18 58.0853 225.69 57.936 224.922 57.936C224.154 57.936 222.916 58.384 221.21 59.28C219.546 60.176 217.818 61.5413 216.026 63.376C214.276 65.168 212.996 66.7893 212.186 68.24C211.375 69.648 210.97 70.7147 210.97 71.44ZM386.632 32.016C387.058 32.016 387.271 32.1227 387.271 32.336C387.271 32.6347 387.037 33.104 386.568 33.744C382.045 39.6747 377.16 46.8853 371.912 55.376C366.706 63.8667 363.101 70.48 361.096 75.216C360.754 75.9413 360.477 76.112 360.264 75.728C360.221 75.6 360.2 75.3653 360.2 75.024C360.2 73.2747 362.504 68.496 367.112 60.688C371.762 52.88 375.965 46.16 379.72 40.528C383.517 34.896 385.65 32.08 386.12 32.08L386.632 32.016ZM361.032 37.968C361.416 37.968 361.608 38.0747 361.608 38.288C361.608 38.5867 361.373 39.056 360.904 39.696C357.448 44.304 353.757 49.616 349.832 55.632C351.837 55.76 353.821 56.016 355.784 56.4C362.184 57.7227 365.384 59.7707 365.384 62.544C365.384 62.7147 365.341 62.8 365.256 62.8C365.17 62.8 365.085 62.6933 365 62.48C364.573 61.4133 362.226 60.688 357.96 60.304C356.68 60.176 355.122 60.112 353.288 60.112C351.453 60.112 349.256 60.24 346.696 60.496C340.381 70.5227 336.178 78.0107 334.088 82.96C333.874 83.4293 333.661 83.664 333.448 83.664C333.277 83.664 333.192 83.4507 333.192 83.024C333.192 80.8907 337.096 73.424 344.904 60.624C342.429 60.9653 340.616 61.2427 339.464 61.456C331.954 62.7787 327.005 64.8267 324.616 67.6C323.89 68.496 323.528 69.328 323.528 70.096C323.528 70.864 323.954 71.5893 324.808 72.272C325.064 72.4427 325.021 72.528 324.68 72.528L324.104 72.336C322.269 70.928 321.352 69.2853 321.352 67.408C321.352 65.5733 322.226 63.7813 323.976 62.032C326.536 59.472 330.909 57.6373 337.096 56.528C340.808 55.888 344.285 55.568 347.528 55.568C347.698 55.568 347.89 55.568 348.104 55.568C355.613 43.8773 359.73 38.032 360.456 38.032L361.032 37.968ZM386.601 64.016C388.862 62.7787 389.993 61.52 389.993 60.24C389.993 58.96 389.225 58.32 387.689 58.32C386.964 58.32 386.196 58.512 385.385 58.896C383.593 59.7067 381.865 61.1147 380.201 63.12C378.153 65.5947 377.129 67.8987 377.129 70.032C377.129 70.8427 377.342 71.6107 377.769 72.336C378.238 73.0187 379.049 73.36 380.201 73.36C382.206 73.36 384.745 72.3147 387.817 70.224C390.889 68.0907 393.534 65.9573 395.753 63.824C396.265 63.312 396.521 63.2907 396.521 63.76C396.521 64.0587 396.393 64.3147 396.137 64.528C394.558 65.9787 393.492 66.96 392.937 67.472C392.425 67.9413 391.38 68.816 389.801 70.096C388.222 71.3333 386.942 72.208 385.961 72.72C382.932 74.2987 380.35 75.088 378.217 75.088C376.126 75.088 374.462 74.6187 373.225 73.68C372.03 72.6987 371.433 71.3547 371.433 69.648C371.433 66.0213 373.054 62.9067 376.297 60.304C379.54 57.6587 382.932 56.336 386.473 56.336C388.862 56.336 390.462 56.848 391.273 57.872C391.614 58.384 391.785 58.9387 391.785 59.536C391.785 60.0907 391.593 60.7093 391.209 61.392C390.441 62.7147 388.99 63.888 386.857 64.912C384.766 65.8933 382.782 66.384 380.905 66.384C380.18 66.384 379.774 66.32 379.689 66.192C379.646 66.064 379.71 65.9787 379.881 65.936C380.052 65.8507 380.286 65.808 380.585 65.808C382.292 65.808 384.297 65.2107 386.601 64.016ZM398.364 71.376C398.364 72.528 398.94 73.104 400.092 73.104C400.775 73.104 401.841 72.8267 403.292 72.272C404.785 71.7173 406.705 70.5013 409.052 68.624C411.399 66.7467 412.977 65.4027 413.788 64.592C414.599 63.7387 415.089 63.3333 415.26 63.376C415.431 63.376 415.495 63.504 415.452 63.76C415.409 63.9733 415.303 64.1653 415.132 64.336C411.505 68.048 408.497 70.7147 406.108 72.336C403.719 73.9573 401.5 74.768 399.452 74.768C397.703 74.768 396.487 74.3627 395.804 73.552C395.121 72.7413 394.78 71.8027 394.78 70.736C394.78 68.816 395.463 66.512 396.828 63.824C394.353 66.4693 393.116 67.3227 393.116 66.384C393.116 66.2133 393.244 66.0213 393.5 65.808C395.505 64.1867 397.66 61.84 399.964 58.768C404.188 53.264 407.495 48.4213 409.884 44.24C410.311 43.4293 410.524 42.832 410.524 42.448C410.524 41.552 410.033 41.3813 409.052 41.936C407.943 42.4907 407.345 42.704 407.26 42.576C407.175 42.448 407.239 42.2773 407.452 42.064C408.476 41.296 409.884 40.5707 411.676 39.888C413.468 39.2053 414.94 38.8427 416.092 38.8C417.884 38.8 418.78 39.3547 418.78 40.464C418.78 41.104 418.46 41.9573 417.82 43.024C417.223 44.0907 415.452 46.224 412.508 49.424C409.607 52.5813 407.836 54.5653 407.196 55.376C402.801 61.136 400.007 65.7227 398.812 69.136C398.513 70.032 398.364 70.7787 398.364 71.376ZM427.289 64.016C429.55 62.7787 430.681 61.52 430.681 60.24C430.681 58.96 429.913 58.32 428.377 58.32C427.651 58.32 426.883 58.512 426.073 58.896C424.281 59.7067 422.553 61.1147 420.889 63.12C418.841 65.5947 417.817 67.8987 417.817 70.032C417.817 70.8427 418.03 71.6107 418.457 72.336C418.926 73.0187 419.737 73.36 420.889 73.36C422.894 73.36 425.433 72.3147 428.505 70.224C431.577 68.0907 434.222 65.9573 436.441 63.824C436.953 63.312 437.209 63.2907 437.209 63.76C437.209 64.0587 437.081 64.3147 436.825 64.528C435.246 65.9787 434.179 66.96 433.625 67.472C433.113 67.9413 432.067 68.816 430.489 70.096C428.91 71.3333 427.63 72.208 426.649 72.72C423.619 74.2987 421.038 75.088 418.905 75.088C416.814 75.088 415.15 74.6187 413.913 73.68C412.718 72.6987 412.12 71.3547 412.12 69.648C412.12 66.0213 413.742 62.9067 416.985 60.304C420.227 57.6587 423.619 56.336 427.161 56.336C429.55 56.336 431.15 56.848 431.961 57.872C432.302 58.384 432.473 58.9387 432.473 59.536C432.473 60.0907 432.281 60.7093 431.897 61.392C431.129 62.7147 429.678 63.888 427.545 64.912C425.454 65.8933 423.47 66.384 421.593 66.384C420.867 66.384 420.462 66.32 420.377 66.192C420.334 66.064 420.398 65.9787 420.569 65.936C420.739 65.8507 420.974 65.808 421.273 65.808C422.979 65.808 424.985 65.2107 427.289 64.016ZM451.34 59.664C451.937 58.9813 452.236 58.448 452.236 58.064C452.236 57.68 451.83 57.488 451.02 57.488C450.252 57.488 449.014 58.2347 447.308 59.728C445.729 61.0933 443.809 63.376 441.548 66.576C439.329 69.776 437.708 71.952 436.684 73.104C435.702 74.2133 434.828 74.768 434.059 74.768C433.974 74.768 433.889 74.768 433.803 74.768C432.694 74.768 431.606 74.32 430.539 73.424C430.795 73.04 431.414 72.208 432.395 70.928C434.572 68.2827 436.47 65.7227 438.092 63.248C436.257 65.0827 434.7 66.512 433.419 67.536C432.993 67.8773 432.758 67.8987 432.715 67.6C432.63 67.3013 432.715 67.0453 432.971 66.832C433.227 66.576 433.654 66.192 434.252 65.68C434.849 65.1253 435.233 64.7627 435.404 64.592C435.617 64.4213 435.98 64.1013 436.492 63.632C437.046 63.12 437.452 62.7147 437.708 62.416C438.902 61.008 439.777 59.8133 440.332 58.832C440.545 58.32 440.63 57.8293 440.588 57.36C440.588 56.848 440.481 56.528 440.268 56.4C440.097 56.2293 440.033 56.0373 440.076 55.824C440.076 55.4827 440.246 55.312 440.588 55.312C440.758 55.312 440.95 55.3547 441.164 55.44C442.486 56.0373 443.148 57.232 443.148 59.024C443.148 60.7733 442.764 62.6507 441.996 64.656C443.66 62.48 444.918 60.9227 445.772 59.984C447.99 57.5093 450.166 56.272 452.3 56.272C454.39 56.272 455.628 57.168 456.012 58.96C456.054 59.216 456.076 59.6213 456.076 60.176C456.076 60.688 455.862 61.392 455.436 62.288C455.052 63.184 454.113 64.656 452.62 66.704C451.126 68.752 450.252 70.0533 449.996 70.608C449.782 71.12 449.718 71.504 449.804 71.76C449.889 72.016 450.081 72.1653 450.38 72.208C450.892 72.2933 451.766 71.952 453.003 71.184C454.753 69.9467 457.014 68.048 459.788 65.488C460.257 65.0187 460.492 65.0613 460.492 65.616C460.492 65.8293 460.385 66.0427 460.172 66.256C456.033 70.096 452.961 72.4853 450.956 73.424C448.609 74.6187 446.774 74.8107 445.452 74C444.641 73.488 444.236 72.784 444.236 71.888C444.236 70.9493 444.406 70.0107 444.748 69.072C445.516 66.896 447.713 63.76 451.34 59.664ZM482.927 64.144C482.458 64.6987 481.967 65.296 481.455 65.936C480.986 66.576 480.367 67.4507 479.599 68.56C478.874 69.6693 478.511 70.608 478.511 71.376C478.511 72.144 478.831 72.528 479.471 72.528C480.154 72.528 481.242 72.1227 482.735 71.312C485.722 69.6053 489.028 67.0453 492.655 63.632C493.082 63.2053 493.359 63.1413 493.487 63.44C493.487 63.4827 493.487 63.568 493.487 63.696C493.487 63.824 493.402 63.9733 493.231 64.144C485.892 71.056 480.559 74.512 477.231 74.512C476.25 74.512 475.418 74.192 474.735 73.552C474.095 72.8693 473.775 72.08 473.775 71.184C473.775 70.288 474.159 68.9227 474.927 67.088C473.007 69.4773 470.938 71.3333 468.719 72.656C466.543 73.936 464.836 74.576 463.599 74.576C462.362 74.576 461.295 74.2133 460.399 73.488C459.546 72.72 459.119 71.7813 459.119 70.672C459.119 67.5147 460.527 64.4213 463.343 61.392C465.476 59.1307 468.122 57.5307 471.279 56.592C472.687 56.1227 474.052 55.888 475.375 55.888C476.74 55.888 478.042 56.272 479.279 57.04C480.559 57.7653 481.37 58.64 481.711 59.664C482.991 59.664 483.908 60.1333 484.463 61.072C484.548 61.2 484.591 61.4133 484.591 61.712C484.591 62.0107 484.42 62.352 484.079 62.736C483.78 63.12 483.396 63.5893 482.927 64.144ZM478.255 57.808C477.359 57.808 476.292 58.0853 475.055 58.64C472.879 59.5787 470.81 61.2 468.847 63.504C465.732 67.1733 464.175 69.8613 464.175 71.568C464.175 72.464 464.538 72.912 465.263 72.912C465.86 72.912 466.842 72.528 468.207 71.76C469.615 70.992 471.45 69.4773 473.711 67.216C473.839 67.088 474.33 66.6187 475.183 65.808C476.036 64.9973 476.762 64.2933 477.359 63.696C479.364 61.6053 480.367 60.112 480.367 59.216C480.367 58.2773 479.663 57.808 478.255 57.808Z" fill="#EDF3F9"/>
<path d="M275.401 59.152C275.401 62.1387 273.907 65.3813 270.921 68.88C268.702 71.4827 266.27 73.4027 263.625 74.64C262.217 75.28 260.979 75.6 259.913 75.6C258.889 75.6 257.95 75.3013 257.097 74.704C256.243 74.1493 255.817 73.2747 255.817 72.08C255.817 70.8853 255.987 69.712 256.329 68.56C254.835 70.8213 253.662 72.4213 252.809 73.36C251.955 74.2987 251.145 74.768 250.377 74.768C250.291 74.768 250.184 74.768 250.056 74.768C248.947 74.768 247.88 74.32 246.856 73.424C249.63 69.5413 251.785 66.384 253.321 63.952C252.339 64.9333 251.123 66.0213 249.672 67.216C249.288 67.5147 249.032 67.5787 248.904 67.408C248.734 67.1947 248.883 66.8747 249.352 66.448C250.633 65.3813 251.529 64.6133 252.041 64.144C253.704 62.5227 255.71 59.8773 258.057 56.208C264.585 46.096 267.849 39.824 267.849 37.392C267.849 36.5387 267.422 36.0907 266.569 36.048C266.483 36.048 266.441 36.0053 266.441 35.92C266.441 35.8347 266.483 35.792 266.569 35.792C268.531 35.8773 269.662 37.1787 269.961 39.696C269.961 39.8667 269.961 40.0587 269.961 40.272C269.961 43.6 267.187 50.128 261.641 59.856C263.774 57.7227 265.929 56.2293 268.105 55.376C269.171 54.9493 270.153 54.736 271.049 54.736C271.987 54.736 272.862 54.9493 273.673 55.376C274.825 56.3147 275.401 57.5733 275.401 59.152ZM266.569 58.704C265.886 58.704 265.033 58.9813 264.009 59.536C262.174 60.5173 260.553 62.096 259.145 64.272C257.481 66.7893 256.649 69.2 256.649 71.504C256.649 73.04 257.075 74.0427 257.929 74.512C258.398 74.8107 258.974 74.96 259.657 74.96C260.382 74.96 261.278 74.6827 262.345 74.128C264.137 73.232 265.758 71.6747 267.208 69.456C268.83 66.9387 269.641 64.528 269.641 62.224C269.641 59.8773 268.617 58.704 266.569 58.704ZM287.202 59.664C287.714 59.1093 287.97 58.64 287.97 58.256C287.97 57.872 287.714 57.68 287.202 57.68C286.69 57.68 285.9 58.064 284.834 58.832C283.81 59.6 282.252 60.9653 280.161 62.928C278.071 64.8907 276.812 66.0427 276.386 66.384C276.002 66.6827 275.809 66.6827 275.809 66.384C275.767 66.0853 276.023 65.7227 276.578 65.296C277.132 64.8267 278.37 63.6107 280.29 61.648C282.21 59.6853 283.703 58.2987 284.77 57.488C285.836 56.6773 287.052 56.272 288.418 56.272C289.954 56.272 290.999 56.848 291.554 58C291.81 58.4267 291.938 58.9813 291.938 59.664C291.938 60.3467 291.767 61.1147 291.426 61.968C291.084 62.7787 290.679 63.5253 290.21 64.208C289.783 64.848 289.207 65.6373 288.482 66.576C287.799 67.5147 287.116 68.4533 286.434 69.392C285.794 70.3307 285.474 71.0133 285.474 71.44C285.474 71.8667 285.644 72.08 285.986 72.08C287.65 72.08 290.764 69.3067 295.33 63.76C297.506 61.1573 299.362 58.7253 300.898 56.464C302.263 53.3067 303.458 51.5787 304.482 51.28C304.866 51.152 305.335 51.088 305.89 51.088C306.444 51.088 306.85 51.3227 307.106 51.792C307.362 52.2613 307.49 52.624 307.49 52.88C307.49 53.136 307.298 53.3493 306.914 53.52C306.572 53.648 306.252 53.712 305.954 53.712C305.698 53.6693 305.527 53.648 305.442 53.648C304.204 53.648 303.159 54.544 302.306 56.336C301.794 57.4453 301.132 59.216 300.322 61.648C299.554 64.08 298.828 66.32 298.146 68.368C297.463 70.416 296.332 72.8053 294.753 75.536C293.175 78.2667 291.255 80.8267 288.994 83.216C286.732 85.6053 284.044 87.6107 280.93 89.232C277.858 90.8533 274.7 91.664 271.457 91.664C268.215 91.664 265.505 90.9173 263.329 89.424C261.111 87.9307 259.745 85.6267 259.233 82.512C259.233 82.2987 259.276 82.1493 259.361 82.064C259.447 81.9787 259.553 81.9787 259.681 82.064C259.809 82.1493 259.873 82.2773 259.873 82.448C260.3 84.8373 261.452 86.7787 263.329 88.272C265.164 89.7653 267.297 90.512 269.729 90.512C272.929 90.512 276.193 89.2747 279.522 86.8C282.892 84.368 286.028 81.1467 288.93 77.136C291.874 73.168 295.33 67.344 299.298 59.664C298.316 61.1573 297.143 62.7787 295.778 64.528C290.444 71.0987 286.348 74.384 283.49 74.384C281.314 74.384 280.226 73.36 280.226 71.312C280.226 70.5867 280.375 69.7333 280.674 68.752C281.271 67.0453 283.447 64.016 287.202 59.664Z" fill="#F9968B"/>
<path d="M137.208 144.224C135.92 144.224 135.033 143.953 134.548 143.412C134.063 142.871 133.82 142.003 133.82 140.808V128.012H132.448V124.288H133.82V119.948H138.58V124.288H139.98V128.012H138.58V139.52C138.58 139.875 138.608 140.136 138.664 140.304C138.72 140.472 138.869 140.556 139.112 140.556C139.299 140.556 139.476 140.547 139.644 140.528C139.812 140.509 139.924 140.5 139.98 140.5V143.86C139.7 143.935 139.289 144.009 138.748 144.084C138.225 144.177 137.712 144.224 137.208 144.224ZM142.071 123.504H146.971V125.772C147.214 124.969 147.634 124.353 148.231 123.924C148.847 123.476 149.603 123.252 150.499 123.252V127.34C149.809 127.34 149.043 127.443 148.203 127.648C147.382 127.835 146.971 128.059 146.971 128.32V144H142.071V123.504ZM155.98 144.224C154.394 144.224 153.302 143.701 152.704 142.656C152.126 141.592 151.836 140.08 151.836 138.12C151.836 136.515 152.042 135.283 152.452 134.424C152.882 133.565 153.47 132.94 154.216 132.548C154.963 132.137 156.102 131.689 157.632 131.204L158.976 130.756V130.7V128.656C158.976 128.115 158.864 127.704 158.64 127.424C158.435 127.125 158.183 126.976 157.884 126.976C157.623 126.976 157.39 127.097 157.184 127.34C156.998 127.583 156.904 127.909 156.904 128.32V129.552H152.144V128.88C152.144 126.864 152.611 125.427 153.544 124.568C154.496 123.709 156.036 123.28 158.164 123.28C159.863 123.28 161.244 123.728 162.308 124.624C163.372 125.501 163.904 126.752 163.904 128.376V144H159.032V141.564C158.79 142.404 158.398 143.057 157.856 143.524C157.334 143.991 156.708 144.224 155.98 144.224ZM157.912 140.416C158.286 140.416 158.547 140.267 158.696 139.968C158.864 139.651 158.948 139.268 158.948 138.82V133.108C158.22 133.388 157.679 133.743 157.324 134.172C156.988 134.601 156.82 135.199 156.82 135.964V138.596C156.82 139.809 157.184 140.416 157.912 140.416ZM166.323 122.132V118.716H171.223V122.132H166.323ZM166.323 144V123.504H171.223V144H166.323ZM173.72 123.504H178.62V126.108C178.825 125.268 179.18 124.587 179.684 124.064C180.188 123.541 180.86 123.28 181.7 123.28C183.081 123.28 184.099 123.709 184.752 124.568C185.424 125.408 185.76 126.612 185.76 128.18V144H180.944V128.684C180.944 128.236 180.851 127.853 180.664 127.536C180.496 127.219 180.225 127.06 179.852 127.06C179.348 127.06 179.012 127.293 178.844 127.76C178.695 128.208 178.62 128.815 178.62 129.58V144H173.72V123.504ZM188.225 122.132V118.716H193.125V122.132H188.225ZM188.225 144V123.504H193.125V144H188.225ZM195.621 123.504H200.521V126.108C200.727 125.268 201.081 124.587 201.585 124.064C202.089 123.541 202.761 123.28 203.601 123.28C204.983 123.28 206 123.709 206.653 124.568C207.325 125.408 207.661 126.612 207.661 128.18V144H202.845V128.684C202.845 128.236 202.752 127.853 202.565 127.536C202.397 127.219 202.127 127.06 201.753 127.06C201.249 127.06 200.913 127.293 200.745 127.76C200.596 128.208 200.521 128.815 200.521 129.58V144H195.621V123.504ZM215.67 146.996C214.214 146.996 213.066 146.875 212.226 146.632C211.405 146.408 210.593 145.969 209.79 145.316L211.47 142.488C212.665 143.197 213.85 143.552 215.026 143.552C215.791 143.552 216.37 143.309 216.762 142.824C217.154 142.339 217.35 141.676 217.35 140.836V139.716C216.958 141.116 215.922 141.816 214.242 141.816C212.842 141.816 211.806 141.34 211.134 140.388C210.481 139.436 210.154 138.167 210.154 136.58V128.88C210.154 127.069 210.453 125.688 211.05 124.736C211.666 123.765 212.73 123.28 214.242 123.28C215.119 123.28 215.81 123.504 216.314 123.952C216.837 124.381 217.182 124.997 217.35 125.8V123.504H222.362V140.528C222.362 142.824 221.83 144.476 220.766 145.484C219.702 146.492 218.003 146.996 215.67 146.996ZM216.202 138.12C216.967 138.12 217.35 137.429 217.35 136.048V128.74C217.35 128.329 217.238 127.937 217.014 127.564C216.79 127.191 216.51 127.004 216.174 127.004C215.745 127.004 215.455 127.163 215.306 127.48C215.157 127.779 215.082 128.199 215.082 128.74V136.048C215.082 136.664 215.157 137.168 215.306 137.56C215.455 137.933 215.754 138.12 216.202 138.12ZM239.87 144.224C238.526 144.224 237.564 143.421 236.986 141.816V144H231.946V119.808H236.986V124.484C237.77 123.681 238.684 123.28 239.73 123.28C241.316 123.28 242.455 123.756 243.146 124.708C243.836 125.641 244.182 126.995 244.182 128.768V138.652C244.182 140.332 243.827 141.685 243.118 142.712C242.408 143.72 241.326 144.224 239.87 144.224ZM238.218 140.416C238.554 140.416 238.787 140.313 238.918 140.108C239.067 139.884 239.151 139.613 239.17 139.296C239.207 138.96 239.226 138.447 239.226 137.756V129.216C239.226 128.488 239.16 127.947 239.03 127.592C238.899 127.237 238.619 127.06 238.19 127.06C237.723 127.06 237.406 127.237 237.238 127.592C237.07 127.947 236.986 128.469 236.986 129.16V137.756C236.986 138.652 237.06 139.324 237.21 139.772C237.359 140.201 237.695 140.416 238.218 140.416ZM252.497 144.224C248.409 144.224 246.365 142.105 246.365 137.868V129.636C246.365 127.695 246.906 126.155 247.989 125.016C249.09 123.859 250.593 123.28 252.497 123.28C254.401 123.28 255.894 123.859 256.977 125.016C258.078 126.155 258.629 127.695 258.629 129.636V137.868C258.629 142.105 256.585 144.224 252.497 144.224ZM252.497 140.444C252.889 140.444 253.178 140.304 253.365 140.024C253.552 139.744 253.645 139.361 253.645 138.876V128.852C253.645 127.657 253.262 127.06 252.497 127.06C251.732 127.06 251.349 127.657 251.349 128.852V138.876C251.349 139.361 251.442 139.744 251.629 140.024C251.816 140.304 252.105 140.444 252.497 140.444ZM265.043 144.224C263.848 144.224 262.943 143.944 262.327 143.384C261.73 142.805 261.328 142.049 261.123 141.116C260.936 140.164 260.843 138.951 260.843 137.476L260.899 128.236C260.899 126.78 261.263 125.595 261.991 124.68C262.738 123.747 263.783 123.28 265.127 123.28C266.452 123.28 267.442 123.719 268.095 124.596V119.808H272.995V144H268.095V141.816C267.815 142.619 267.432 143.225 266.947 143.636C266.48 144.028 265.846 144.224 265.043 144.224ZM266.919 140.388C267.404 140.388 267.722 140.155 267.871 139.688C268.02 139.203 268.095 138.559 268.095 137.756V136.888V129.188C268.095 128.591 268.011 128.087 267.843 127.676C267.675 127.265 267.376 127.06 266.947 127.06C266.462 127.06 266.135 127.256 265.967 127.648C265.818 128.021 265.743 128.535 265.743 129.188V137.812C265.743 139.529 266.135 140.388 266.919 140.388ZM275.124 144.308H277.476C277.812 144.308 277.98 144.168 277.98 143.888C277.98 143.757 277.971 143.655 277.952 143.58L274.76 123.504H279.436L280.36 133.5L280.808 138.596L281.34 133.5L282.432 123.504H287.136L283.328 145.064C283.198 145.867 282.927 146.455 282.516 146.828C282.124 147.22 281.499 147.416 280.64 147.416H275.124V144.308ZM317.924 123.504H322.712V125.884C322.936 125.007 323.319 124.353 323.86 123.924C324.402 123.495 325.167 123.28 326.156 123.28C326.959 123.28 327.65 123.467 328.228 123.84C328.826 124.195 329.246 124.689 329.488 125.324C329.899 124.615 330.356 124.101 330.86 123.784C331.364 123.448 332.064 123.28 332.96 123.28C334.566 123.28 335.676 123.775 336.292 124.764C336.927 125.735 337.244 127.153 337.244 129.02L337.188 144H332.26V128.936C332.26 127.611 331.924 126.948 331.252 126.948C330.786 126.948 330.45 127.181 330.244 127.648C330.039 128.096 329.936 128.637 329.936 129.272V144H325.036V128.936C325.036 128.357 324.971 127.891 324.84 127.536C324.728 127.181 324.476 127.004 324.084 127.004C323.58 127.004 323.226 127.256 323.02 127.76C322.815 128.245 322.712 128.833 322.712 129.524V144H317.924V123.504ZM339.675 122.132V118.716H344.575V122.132H339.675ZM339.675 144V123.504H344.575V144H339.675ZM347.072 123.504H351.972V126.108C352.177 125.268 352.532 124.587 353.036 124.064C353.54 123.541 354.212 123.28 355.052 123.28C356.433 123.28 357.45 123.709 358.104 124.568C358.776 125.408 359.112 126.612 359.112 128.18V144H354.296V128.684C354.296 128.236 354.202 127.853 354.016 127.536C353.848 127.219 353.577 127.06 353.204 127.06C352.7 127.06 352.364 127.293 352.196 127.76C352.046 128.208 351.972 128.815 351.972 129.58V144H347.072V123.504ZM365.636 144.224C364.442 144.224 363.536 143.944 362.92 143.384C362.323 142.805 361.922 142.049 361.716 141.116C361.53 140.164 361.436 138.951 361.436 137.476L361.492 128.236C361.492 126.78 361.856 125.595 362.584 124.68C363.331 123.747 364.376 123.28 365.72 123.28C367.046 123.28 368.035 123.719 368.688 124.596V119.808H373.588V144H368.688V141.816C368.408 142.619 368.026 143.225 367.54 143.636C367.074 144.028 366.439 144.224 365.636 144.224ZM367.512 140.388C367.998 140.388 368.315 140.155 368.464 139.688C368.614 139.203 368.688 138.559 368.688 137.756V136.888V129.188C368.688 128.591 368.604 128.087 368.436 127.676C368.268 127.265 367.97 127.06 367.54 127.06C367.055 127.06 366.728 127.256 366.56 127.648C366.411 128.021 366.336 128.535 366.336 129.188V137.812C366.336 139.529 366.728 140.388 367.512 140.388Z" fill="#EDF3F9"/>
<path d="M299.997 144.28C298.56 144.28 297.468 143.767 296.721 142.74C295.974 141.713 295.601 140.379 295.601 138.736C295.601 136.907 295.862 135.441 296.385 134.34C296.908 133.22 297.729 132.24 298.849 131.4C297.934 129.608 297.477 128.059 297.477 126.752C297.477 125.389 297.916 124.325 298.793 123.56C299.689 122.776 300.837 122.384 302.237 122.384C303.618 122.384 304.748 122.757 305.625 123.504C306.521 124.232 306.969 125.259 306.969 126.584C306.969 128.525 305.896 130.345 303.749 132.044L304.617 134.088C305.14 132.707 305.924 131.633 306.969 130.868L308.873 133.836C307.772 134.695 306.876 136.113 306.185 138.092L308.621 144H303.973L303.469 142.684C303.077 143.151 302.573 143.533 301.957 143.832C301.36 144.131 300.706 144.28 299.997 144.28ZM302.741 128.572C302.928 128.367 303.096 128.077 303.245 127.704C303.394 127.312 303.469 126.939 303.469 126.584C303.469 126.024 303.198 125.744 302.657 125.744C302.433 125.744 302.256 125.828 302.125 125.996C301.994 126.145 301.929 126.341 301.929 126.584C301.929 127.069 302.125 127.816 302.517 128.824L302.741 128.572ZM300.753 140.78C301.108 140.78 301.406 140.649 301.649 140.388C301.892 140.108 302.05 139.791 302.125 139.436L300.473 135.46L300.305 135.712C300.156 135.936 300.034 136.291 299.941 136.776C299.848 137.261 299.801 137.737 299.801 138.204V138.344C299.801 139.072 299.857 139.66 299.969 140.108C300.081 140.556 300.342 140.78 300.753 140.78Z" fill="#F9968B"/>
</svg>
