<svg width="54" height="54" viewBox="0 0 54 54" fill="none" xmlns="http://www.w3.org/2000/svg">
<path d="M17.79 24.825C16.6804 24.8288 15.5904 25.118 14.625 25.665C15.9842 22.1468 18.2386 19.0444 21.165 16.665C21.3324 16.5271 21.4711 16.3576 21.573 16.1661C21.6749 15.9747 21.7381 15.765 21.759 15.5491C21.7799 15.3332 21.7581 15.1153 21.6948 14.9078C21.6315 14.7004 21.5279 14.5074 21.39 14.34C21.2521 14.1726 21.0826 14.0339 20.8911 13.932C20.6997 13.8301 20.49 13.7669 20.2741 13.746C20.0582 13.7251 19.8403 13.7469 19.6329 13.8102C19.4254 13.8736 19.2324 13.9771 19.065 14.115C13.065 18.99 10.395 25.74 10.395 29.925C10.4053 31.4047 10.8463 32.8495 11.6641 34.0827C12.4818 35.316 13.641 36.2845 15 36.87C15.8795 37.2961 16.8427 37.5215 17.82 37.53C18.6802 37.5718 19.5399 37.4385 20.347 37.1381C21.1542 36.8377 21.8919 36.3766 22.5155 35.7826C23.139 35.1886 23.6355 34.4741 23.9747 33.6825C24.3139 32.8909 24.4888 32.0387 24.4888 31.1775C24.4888 30.3163 24.3139 29.4641 23.9747 28.6725C23.6355 27.8809 23.139 27.1664 22.5155 26.5724C21.8919 25.9784 21.1542 25.5173 20.347 25.2169C19.5399 24.9165 18.6802 24.7832 17.82 24.825H17.79Z" fill="#F9968B"/>
<path d="M34.5 24.825C33.3902 24.8274 32.2999 25.1168 31.335 25.665C32.6937 22.1504 34.9421 19.0491 37.86 16.665C38.0426 16.5334 38.1964 16.3657 38.3118 16.1724C38.4272 15.9791 38.5019 15.7643 38.5312 15.5411C38.5604 15.3178 38.5437 15.091 38.4821 14.8745C38.4204 14.6579 38.3151 14.4563 38.1725 14.282C38.03 14.1078 37.8534 13.9645 37.6534 13.861C37.4535 13.7576 37.2345 13.6961 37.0099 13.6805C36.7853 13.6648 36.5599 13.6953 36.3475 13.77C36.1351 13.8448 35.9403 13.9622 35.775 14.115C29.775 18.99 27.105 25.74 27.105 29.925C27.1121 31.388 27.5402 32.818 28.3382 34.0442C29.1362 35.2704 30.2702 36.241 31.605 36.84C32.5068 37.2785 33.4972 37.5043 34.5 37.5C35.3602 37.5418 36.2199 37.4085 37.027 37.1081C37.8342 36.8077 38.5719 36.3466 39.1954 35.7526C39.819 35.1586 40.3155 34.4441 40.6547 33.6525C40.9939 32.8609 41.1688 32.0087 41.1688 31.1475C41.1688 30.2863 40.9939 29.4341 40.6547 28.6425C40.3155 27.8509 39.819 27.1364 39.1954 26.5424C38.5719 25.9484 37.8342 25.4873 37.027 25.1869C36.2199 24.8865 35.3602 24.7532 34.5 24.795V24.825Z" fill="#F9968B"/>
</svg>
