<svg width="234" height="173" viewBox="0 0 234 173" fill="none" xmlns="http://www.w3.org/2000/svg">
<path d="M49.216 70.8L51.616 71.184C54.688 71.184 59.232 69.84 65.248 67.152C71.328 64.4 76.896 61.008 81.952 56.976C87.008 52.944 89.536 49.392 89.536 46.32C89.536 44.336 88.544 42.96 86.56 42.192C84.64 41.424 82.528 41.04 80.224 41.04C72.736 41.04 64.672 43.184 56.032 47.472C47.392 51.76 39.936 56.816 33.664 62.64C25.216 70.512 20.992 78 20.992 85.104C20.992 88.176 21.76 90.864 23.296 93.168C24.832 95.472 26.88 97.264 29.44 98.544C34.24 100.912 39.616 102.096 45.568 102.096C48.256 102.096 51.552 101.808 55.456 101.232C62.24 100.016 68.032 98.416 72.832 96.432C77.696 94.448 82.56 91.472 87.424 87.504C87.68 87.376 87.84 87.312 87.904 87.312C88.224 87.312 88.384 87.472 88.384 87.792C88.384 88.048 88.256 88.368 88 88.752C83.2 93.936 76.512 98.192 67.936 101.52C59.36 104.784 51.328 106.416 43.84 106.416C34.24 106.416 27.04 103.6 22.24 97.968C19.616 94.832 18.304 91.056 18.304 86.64C18.304 78.064 22.944 69.584 32.224 61.2C39.2 54.928 47.584 49.52 57.376 44.976C67.168 40.432 76.288 38.16 84.736 38.16C89.92 38.16 93.952 39.408 96.832 41.904C98.496 43.44 99.328 45.328 99.328 47.568C99.328 50.704 97.728 53.872 94.528 57.072C91.392 60.208 87.584 62.896 83.104 65.136C78.688 67.376 74.24 69.264 69.76 70.8C65.344 72.272 62.24 73.104 60.448 73.296C58.72 73.424 57.376 73.488 56.416 73.488C55.52 73.488 54.592 73.456 53.632 73.392C50.304 73.072 48.64 72.368 48.64 71.28C48.64 70.96 48.832 70.8 49.216 70.8Z" fill="#EDF3F9"/>
<path d="M126.632 100.728C126.632 105.208 124.392 110.072 119.912 115.32C116.584 119.224 112.936 122.104 108.968 123.96C106.856 124.92 105 125.4 103.4 125.4C101.864 125.4 100.456 124.952 99.176 124.056C97.896 123.224 97.256 121.912 97.256 120.12C97.256 118.328 97.512 116.568 98.024 114.84C95.784 118.232 94.024 120.632 92.744 122.04C91.464 123.448 90.248 124.152 89.096 124.152C88.968 124.152 88.808 124.152 88.616 124.152C86.952 124.152 85.352 123.48 83.816 122.136C87.976 116.312 91.208 111.576 93.512 107.928C92.04 109.4 90.216 111.032 88.04 112.824C87.464 113.272 87.08 113.368 86.888 113.112C86.632 112.792 86.856 112.312 87.56 111.672C89.48 110.072 90.824 108.92 91.592 108.216C94.088 105.784 97.096 101.816 100.616 96.312C110.408 81.144 115.304 71.736 115.304 68.088C115.304 66.808 114.664 66.136 113.384 66.072C113.256 66.072 113.192 66.008 113.192 65.88C113.192 65.752 113.256 65.688 113.384 65.688C116.328 65.816 118.024 67.768 118.472 71.544C118.472 71.8 118.472 72.088 118.472 72.408C118.472 77.4 114.312 87.192 105.992 101.784C109.192 98.584 112.424 96.344 115.688 95.064C117.288 94.424 118.76 94.104 120.104 94.104C121.512 94.104 122.824 94.424 124.04 95.064C125.768 96.472 126.632 98.36 126.632 100.728ZM113.384 100.056C112.36 100.056 111.08 100.472 109.544 101.304C106.792 102.776 104.36 105.144 102.248 108.408C99.752 112.184 98.504 115.8 98.504 119.256C98.504 121.56 99.144 123.064 100.424 123.768C101.128 124.216 101.992 124.44 103.016 124.44C104.104 124.44 105.448 124.024 107.048 123.192C109.736 121.848 112.168 119.512 114.344 116.184C116.776 112.408 117.992 108.792 117.992 105.336C117.992 101.816 116.456 100.056 113.384 100.056Z" fill="#F9968B"/>
<path d="M232.416 39.024C233.056 39.024 233.376 39.184 233.376 39.504C233.376 39.952 233.024 40.656 232.32 41.616C225.536 50.512 218.208 61.328 210.336 74.064C202.528 86.8 197.12 96.72 194.112 103.824C193.6 104.912 193.184 105.168 192.864 104.592C192.8 104.4 192.768 104.048 192.768 103.536C192.768 100.912 196.224 93.744 203.136 82.032C210.112 70.32 216.416 60.24 222.048 51.792C227.744 43.344 230.944 39.12 231.648 39.12L232.416 39.024ZM194.016 47.952C194.592 47.952 194.88 48.112 194.88 48.432C194.88 48.88 194.528 49.584 193.824 50.544C188.64 57.456 183.104 65.424 177.216 74.448C180.224 74.64 183.2 75.024 186.144 75.6C195.744 77.584 200.544 80.656 200.544 84.816C200.544 85.072 200.48 85.2 200.352 85.2C200.224 85.2 200.096 85.04 199.968 84.72C199.328 83.12 195.808 82.032 189.408 81.456C187.488 81.264 185.152 81.168 182.4 81.168C179.648 81.168 176.352 81.36 172.512 81.744C163.04 96.784 156.736 108.016 153.6 115.44C153.28 116.144 152.96 116.496 152.64 116.496C152.384 116.496 152.256 116.176 152.256 115.536C152.256 112.336 158.112 101.136 169.824 81.936C166.112 82.448 163.392 82.864 161.664 83.184C150.4 85.168 142.976 88.24 139.392 92.4C138.304 93.744 137.76 94.992 137.76 96.144C137.76 97.296 138.4 98.384 139.68 99.408C140.064 99.664 140 99.792 139.488 99.792L138.624 99.504C135.872 97.392 134.496 94.928 134.496 92.112C134.496 89.36 135.808 86.672 138.432 84.048C142.272 80.208 148.832 77.456 158.112 75.792C163.68 74.832 168.896 74.352 173.76 74.352C174.016 74.352 174.304 74.352 174.624 74.352C185.888 56.816 192.064 48.048 193.152 48.048L194.016 47.952Z" fill="#EDF3F9"/>
</svg>
